<svg width="160" height="56" viewBox="0 0 160 56" fill="none" xmlns="http://www.w3.org/2000/svg">
<path d="M122.504 0.853027H12.5083C6.65292 0.853027 1.90625 5.59969 1.90625 11.4551V41.9356C1.90625 47.7909 6.65292 52.5376 12.5083 52.5376H122.504C128.36 52.5376 133.106 47.7909 133.106 41.9356V11.4551C133.106 5.59969 128.36 0.853027 122.504 0.853027Z" fill="#005D38"/>
<path d="M90.3236 50.6114C89.5332 50.6847 88.8228 50.4991 88.1924 50.0553C87.579 49.6094 87.2212 48.8368 87.1193 47.7371C87.0446 46.9296 87.1118 46.0741 87.3225 45.1707C87.5332 44.2673 87.8702 43.4128 88.3326 42.6073C88.8121 41.8003 89.4164 41.1203 90.1449 40.5674C90.8734 40.0146 91.7188 39.6935 92.6809 39.6041C93.4713 39.5307 94.0958 39.6288 94.554 39.8982C95.0276 40.1488 95.3822 40.5145 95.6174 40.9952C95.8526 41.476 95.9966 41.9998 96.0494 42.5669C96.0894 42.9964 96.0788 43.4393 96.0169 43.8957C95.9705 44.3332 95.882 44.7747 95.7497 45.2202C96.074 45.5368 96.4596 45.6743 96.906 45.6328C97.387 45.5881 97.8174 45.3663 98.1961 44.9672C98.4174 44.7386 98.6084 44.461 98.7684 44.1342C98.9449 43.7885 99.0969 43.4711 99.226 43.1818C99.2681 43.0739 99.3236 43.0168 99.3924 43.0104C99.4782 43.0024 99.5321 43.1187 99.5545 43.3593C99.5689 43.5139 99.5598 43.6967 99.5273 43.9077C99.5118 44.1171 99.4452 44.3312 99.3268 44.5502C99.1108 45.0209 98.8766 45.3892 98.6238 45.6553C98.3694 45.9042 98.0772 46.1133 97.7465 46.2827C97.498 46.4097 97.2276 46.4867 96.9358 46.5139C96.403 46.5633 95.907 46.4448 95.4468 46.1582C95.3369 46.4631 95.1929 46.7797 95.0153 47.1081C94.595 47.9963 94.018 48.7777 93.2836 49.4526C92.547 50.1102 91.5604 50.4961 90.3236 50.6114ZM91.2121 49.5408C91.6073 49.5043 91.9732 49.3403 92.3097 49.0488C92.6622 48.739 92.9753 48.372 93.2478 47.9481C93.5204 47.5242 93.7486 47.0871 93.9321 46.6368C94.1321 46.1849 94.2948 45.7886 94.4196 45.4477C93.7892 45.0037 93.4382 44.4037 93.3684 43.6476C93.322 43.1493 93.4233 42.75 93.6729 42.4496C93.9225 42.1491 94.2889 41.9937 94.7737 41.9834C94.7198 41.5898 94.5865 41.2729 94.3732 41.0328C94.1604 40.7926 93.8393 40.6924 93.4094 40.7323C93.0148 40.769 92.6478 40.9243 92.3092 41.1984C91.9881 41.4709 91.6905 41.8104 91.4158 42.2171C91.1572 42.6051 90.9262 43.0078 90.722 43.4254C90.5342 43.8241 90.3769 44.1853 90.2505 44.5089C90.0692 44.9765 89.9129 45.5368 89.7833 46.1901C89.6532 46.8434 89.6137 47.4449 89.6649 47.9947C89.7097 48.4759 89.8409 48.8709 90.0606 49.18C90.2958 49.4701 90.6793 49.5905 91.2121 49.5408Z" fill="white"/>
<path d="M83.0116 51.2384C82.4276 51.2927 82.0079 51.1579 81.7524 50.835C81.513 50.4937 81.3716 50.0909 81.3284 49.6266C81.2756 49.0598 81.3242 48.3707 81.4746 47.5596C81.6223 46.7313 81.8052 45.8998 82.0228 45.0651C82.2554 44.2116 82.4623 43.4559 82.6442 42.7978C82.698 42.6368 82.7178 42.4704 82.7018 42.2985C82.6836 42.1095 82.6111 41.9777 82.4831 41.9029C82.3551 41.8281 82.1962 41.7995 82.0068 41.8171C81.7322 41.8426 81.4308 41.9572 81.1034 42.161C80.5962 42.4853 80.1295 42.9706 79.705 43.6166C79.2794 44.2626 78.9508 44.9257 78.7194 45.6057C78.4612 46.3748 78.2378 47.1408 78.049 47.9036C77.8596 48.6663 77.7098 49.2868 77.5978 49.7649C77.522 50.0668 77.4554 50.3763 77.3978 50.6936C77.3407 51.0108 77.2826 51.3193 77.2244 51.6196L74.7236 51.8518C74.7236 51.8518 74.7642 51.6314 74.8447 51.1907C74.9076 50.7515 75.0058 50.3092 75.1375 49.8633C75.3594 49.0802 75.5812 48.2974 75.8031 47.5142C76.042 46.7295 76.2463 46.0346 76.4154 45.4297C76.4682 45.2515 76.5418 44.924 76.6362 44.4473C76.746 43.9519 76.8372 43.4408 76.9098 42.9142C76.9994 42.386 77.0292 41.9586 76.9988 41.6322C76.9812 41.4432 76.9434 41.3167 76.8852 41.2528C77.0404 41.2384 77.2122 41.2224 77.401 41.2049C77.6058 41.1686 77.7935 41.1424 77.9658 41.1265C78.2063 41.1041 78.4303 41.092 78.6383 41.0901C78.8634 41.0865 79.0127 41.1159 79.0884 41.1783C79.3087 41.3138 79.4324 41.5275 79.4596 41.8196C79.4788 42.0258 79.4554 42.236 79.3882 42.4502C79.3386 42.6627 79.3028 42.8394 79.2815 42.98C79.5012 42.7343 79.7306 42.4964 79.969 42.2663C80.2074 42.0362 80.578 41.7331 81.0804 41.3572C81.3722 41.1395 81.7444 40.9489 82.1972 40.7856C82.65 40.6223 83.065 40.5231 83.4436 40.488C84.4228 40.397 84.9546 40.807 85.0394 41.7176C85.0538 41.8722 85.0522 42.0457 85.0356 42.2378C85.0356 42.4285 85.0036 42.6394 84.9386 42.8708C84.8778 43.1536 84.7754 43.5444 84.6314 44.0431C84.4868 44.5417 84.337 45.0755 84.1818 45.6445C84.0426 46.1947 83.9263 46.7167 83.8335 47.2106C83.7407 47.7045 83.7076 48.0975 83.7348 48.3895C83.7732 48.8019 83.9471 48.9937 84.2564 48.965C84.5316 48.9395 84.8591 48.7358 85.2394 48.3539C85.6042 47.9907 85.9151 47.6066 86.1722 47.2015C86.4916 46.7212 86.7743 46.2184 87.0202 45.693C87.2815 45.1488 87.5039 44.6515 87.6874 44.2013C87.761 44.0558 87.8143 43.9815 87.849 43.9784C87.9519 43.9688 88.017 44.11 88.0442 44.4022C88.057 44.5396 88.0463 44.7052 88.0122 44.899C87.994 45.074 87.9487 45.2429 87.8772 45.4055C87.6751 45.8401 87.4335 46.3218 87.1535 46.8504C86.873 47.379 86.5828 47.8912 86.282 48.387C86.0719 48.7358 85.7876 49.1264 85.4292 49.5579C85.0708 49.9899 84.6815 50.3728 84.2618 50.7064C83.8404 51.0226 83.4239 51.1999 83.0116 51.2384Z" fill="white"/>
<path d="M71.7793 52.2807C71.5558 52.3017 71.3366 52.2699 71.1206 52.1859C70.9068 52.1193 70.718 51.9547 70.5553 51.6923C70.3281 51.2977 70.1878 50.817 70.1356 50.2497C70.078 49.6311 70.1089 48.9351 70.2273 48.1616C70.3446 47.3708 70.5201 46.5574 70.7542 45.721C70.8476 45.4178 70.9692 45.0426 71.1185 44.5955C71.2673 44.1484 71.4508 43.6981 71.6689 43.2447C71.8865 42.7911 72.1457 42.4118 72.4465 42.1066C72.7633 41.7826 73.119 41.6023 73.5142 41.5656C73.7036 41.548 73.9702 41.5319 74.3158 41.5171C74.6609 41.5024 74.9105 41.4793 75.063 41.4478C74.966 41.526 74.8588 41.6746 74.7404 41.8936C74.6225 42.1126 74.5132 42.3393 74.4134 42.5738C74.3126 42.7912 74.2332 42.9632 74.1761 43.0899C73.8118 44.0248 73.4732 44.9488 73.159 45.8618C72.8454 46.7747 72.623 47.6446 72.4918 48.4713C72.4705 48.612 72.4572 48.7518 72.4529 48.8908C72.4481 49.0299 72.4518 49.1595 72.4625 49.28C72.5094 49.7782 72.695 50.0123 73.022 49.9816C73.159 49.9688 73.302 49.9211 73.4502 49.8381C73.614 49.7361 73.7996 49.589 74.007 49.3963C74.3734 49.0504 74.6849 48.6663 74.9398 48.244C75.2422 47.7654 75.5249 47.2625 75.7884 46.7355C76.0497 46.1914 76.2721 45.6942 76.4556 45.2438C76.5281 45.0984 76.582 45.0241 76.6166 45.0209C76.7201 45.0113 76.7852 45.1526 76.8124 45.4447C76.8246 45.5822 76.814 45.7478 76.7798 45.9416C76.7612 46.1166 76.7169 46.2854 76.6449 46.448C76.4428 46.8827 76.2017 47.3643 75.9212 47.8929C75.6412 48.4215 75.351 48.9338 75.0502 49.4297C74.8401 49.7782 74.5558 50.1687 74.1969 50.6007C73.8385 51.0322 73.4497 51.4151 73.03 51.7487C72.6086 52.0649 72.1921 52.2423 71.7793 52.2807Z" fill="white"/>
<path d="M64.0308 53.3636C63.4463 53.418 62.8895 53.3918 62.3593 53.2846C61.8297 53.1785 61.386 52.9769 61.0297 52.6806C60.6729 52.3844 60.4713 51.9872 60.4255 51.4891C60.3897 51.1109 60.4671 50.7311 60.6575 50.3498C60.8644 49.9664 61.1828 49.7548 61.6121 49.7148C61.8015 49.6974 61.9769 49.7246 62.1396 49.7963C62.3023 49.8676 62.4159 49.9695 62.4799 50.1023C62.4644 50.1212 62.4271 50.1853 62.3679 50.295C62.3071 50.3872 62.2697 50.4513 62.2559 50.4871C62.13 50.8105 62.0788 51.1016 62.1028 51.3594C62.1364 51.7202 62.2921 52 62.5705 52.1994C62.8665 52.3973 63.2292 52.4767 63.6585 52.4367C64.2239 52.367 64.6953 52.1235 65.0724 51.7074C65.4655 51.2723 65.6372 50.7885 65.5876 50.256C65.5588 49.9464 65.4633 49.661 65.3001 49.3986C65.0335 48.9555 64.6964 48.5882 64.2879 48.2968C63.8953 47.9866 63.5108 47.6757 63.1359 47.364C62.7769 47.0506 62.4985 46.6606 62.2991 46.1939C62.21 45.9769 62.1497 45.7051 62.1193 45.3787C62.0895 45.0522 62.1028 44.7304 62.1593 44.4131C62.2153 44.0787 62.3188 43.7918 62.4697 43.5525C62.6804 43.2037 63.0127 42.8695 63.4687 42.5499C64.0393 42.1676 64.7289 41.939 65.5364 41.864C66.0692 41.8146 66.5481 41.8394 66.9732 41.9386C67.2921 42.013 67.5743 42.1601 67.8201 42.3799C68.0815 42.5809 68.2297 42.8705 68.2644 43.2485C68.3044 43.678 68.2057 44.1031 67.9673 44.5239C67.7444 44.9258 67.3881 45.1929 66.8975 45.325C66.5919 45.3881 66.3119 45.3621 66.0585 45.2469C65.8036 45.1146 65.6911 44.8391 65.722 44.4203C66.1759 44.2742 66.4937 44.0541 66.674 43.76C66.7631 43.5958 66.8004 43.4364 66.786 43.2817C66.7588 42.9897 66.6201 42.8032 66.37 42.7225C66.1353 42.6229 65.9151 42.5828 65.7092 42.6018C65.4516 42.6258 65.2052 42.6833 64.9711 42.7743C64.7529 42.8466 64.5551 42.9602 64.3785 43.1153C64.0313 43.4769 63.8772 43.8724 63.9167 44.3019C63.9236 44.3706 63.9396 44.4472 63.9647 44.5316C64.0068 44.6143 64.0404 44.6977 64.0655 44.7821C64.1721 44.9975 64.3204 45.1917 64.5097 45.3648C64.6991 45.5378 64.8863 45.685 65.0708 45.8066C65.5289 46.076 65.9983 46.3704 66.4783 46.6897C66.9759 47.0075 67.3604 47.4137 67.6313 47.9085C67.8367 48.2533 67.9572 48.6148 67.9919 48.9928C68.0399 49.5082 67.9551 49.9926 67.7369 50.4462C67.5177 50.8823 67.2559 51.2359 66.9513 51.507C67.4964 51.2138 68.0073 50.7418 68.4836 50.091C68.9764 49.4211 69.3919 48.7675 69.7316 48.1294C69.9524 47.7103 70.1503 47.3193 70.3247 46.9566C70.5145 46.575 70.7007 46.1591 70.8841 45.7088C70.9423 45.5821 70.9967 45.5164 71.0484 45.5116C71.1513 45.5021 71.2164 45.6433 71.2436 45.9354C71.2548 46.0557 71.2425 46.2041 71.2068 46.3807C71.1881 46.5558 71.1444 46.7331 71.0745 46.913C70.8132 47.4571 70.5657 47.9653 70.3321 48.4376C70.0969 48.8927 69.8063 49.3966 69.4585 49.9485C68.7652 51.0698 67.9929 51.8955 67.1412 52.4254C66.2873 52.9379 65.2505 53.2505 64.0308 53.3636Z" fill="white"/>
<path d="M56.506 53.699C55.9738 53.7481 55.585 53.5764 55.3407 53.1833C55.113 52.7881 54.9716 52.29 54.9156 51.6888C54.865 51.1389 54.866 50.5931 54.9199 50.0509C54.9492 49.8054 54.978 49.5599 55.0074 49.3144C55.0522 49.0504 55.105 48.777 55.1652 48.4941C54.9226 49.0541 54.6612 49.5983 54.3807 50.1267C54.1178 50.6535 53.8404 51.1215 53.5492 51.5294C53.0617 52.251 52.5294 52.8634 51.9522 53.3678C51.3923 53.8702 50.8117 54.1492 50.2103 54.2052C49.7292 54.25 49.3009 54.1166 48.9254 53.8046C48.5654 53.474 48.3448 52.8706 48.2634 51.9943C48.1804 51.101 48.2497 50.1672 48.4713 49.1934C48.6928 48.2198 49.041 47.3037 49.5159 46.445C50.0064 45.5677 50.6065 44.8447 51.3162 44.2762C52.0432 43.7062 52.862 43.3789 53.7727 43.2943C54.065 43.2672 54.3866 43.2807 54.7386 43.3347C55.09 43.3887 55.4228 43.5224 55.7375 43.7358C56.05 43.9321 56.2772 44.2316 56.4186 44.6344C56.433 44.5985 56.4474 44.5711 56.4628 44.5523C56.4959 44.5319 56.5199 44.5123 56.5359 44.4936C56.7407 44.0933 56.986 43.7499 57.2719 43.4634C57.5572 43.1769 57.889 43.0162 58.2671 42.9811C58.4554 42.9635 58.7231 42.9474 59.0682 42.9327C59.4132 42.918 59.6623 42.8949 59.8159 42.8633C59.7359 42.94 59.6287 43.0886 59.4927 43.3092C59.3743 43.5281 59.266 43.7549 59.1663 43.9894C59.065 44.2067 58.986 44.3787 58.9279 44.5055C58.5471 45.442 58.2084 46.366 57.9119 47.2773C57.6148 48.1887 57.4015 49.0576 57.2703 49.8843C57.234 50.0611 57.2154 50.2277 57.2122 50.384C57.2074 50.5229 57.2122 50.6613 57.225 50.7986C57.266 51.2455 57.433 51.4551 57.7252 51.4279C57.9999 51.4023 58.3279 51.1989 58.7082 50.8165C59.265 50.2799 59.7332 49.6296 60.113 48.8666C60.5098 48.1019 60.849 47.3686 61.13 46.6665C61.1882 46.5399 61.2426 46.4742 61.2943 46.4694C61.3972 46.4598 61.4623 46.6011 61.4895 46.8932C61.5023 47.0306 61.4906 47.1877 61.4554 47.3643C61.4367 47.5393 61.3919 47.7081 61.3204 47.8707C61.1178 48.3054 60.8474 48.8418 60.5076 49.4799C60.1855 50.1165 59.8111 50.7489 59.3844 51.3777C58.9556 51.9896 58.4932 52.5175 57.9972 52.9624C57.5188 53.4052 57.0218 53.6505 56.506 53.699ZM51.1691 51.9328C51.2223 51.945 51.3004 51.9466 51.4035 51.9368C51.73 51.9066 52.0695 51.7365 52.4219 51.4264C52.7744 51.1163 53.1199 50.7289 53.4575 50.2646C53.7946 49.7823 54.0879 49.3047 54.3386 48.8309C54.9828 47.5579 55.4575 46.604 55.7631 45.9691C56.0676 45.3342 56.242 44.9714 56.2858 44.8808C56.1722 44.5966 55.9983 44.3962 55.762 44.2795C55.5428 44.1611 55.2874 44.1155 54.9951 44.1426C54.617 44.1777 54.2228 44.3183 53.8122 44.5644C53.4191 44.8089 53.0902 45.0907 52.8252 45.4099C52.42 45.8982 52.0438 46.5136 51.6969 47.2564C51.3671 47.9975 51.1053 48.7237 50.9113 49.4348C50.7345 50.1446 50.6677 50.7314 50.7107 51.1953C50.7506 51.6247 50.9034 51.8707 51.1691 51.9328Z" fill="white"/>
<path d="M42.7686 55.0778C41.9611 55.153 41.2946 55.0676 40.7692 54.8218C40.2422 54.5588 39.8439 54.1882 39.5742 53.7108C39.3202 53.2143 39.1661 52.6741 39.1119 52.0899C39.0576 51.5057 39.0885 50.905 39.2045 50.2875C39.3205 49.6704 39.4998 49.082 39.7425 48.522C40.2433 47.3837 40.8992 46.4217 41.7101 45.6359C42.5382 44.8484 43.5966 44.3949 44.8852 44.2753C45.6929 44.2003 46.3391 44.3482 46.8241 44.7192C47.3092 45.09 47.5772 45.5504 47.6282 46.1003C47.6761 46.6157 47.5653 47.1026 47.2959 47.5609C47.0437 48.0176 46.6684 48.269 46.1701 48.3153C45.8952 48.3408 45.6475 48.2858 45.4269 48.1503C45.2064 48.0148 45.081 47.7838 45.0507 47.4573C45.0459 47.4058 45.0411 47.3543 45.0363 47.3027C45.0471 47.2324 45.0579 47.1621 45.0687 47.0917C45.1702 47.065 45.3139 47.0257 45.4997 46.9737C45.7011 46.9031 45.8531 46.7676 45.9559 46.5675C46.1506 46.2374 46.2335 45.9178 46.2048 45.6085C46.1873 45.4195 46.1128 45.2704 45.9813 45.1613C45.8655 45.0335 45.6787 44.9815 45.421 45.0053C44.957 45.0485 44.5004 45.2641 44.0513 45.6524C43.6004 46.0236 43.1858 46.504 42.8073 47.0937C42.446 47.6818 42.141 48.3167 41.8923 48.9984C41.5085 50.0912 41.3573 51.0757 41.4386 51.9521C41.4977 52.5875 41.6924 53.098 42.0227 53.4836C42.3515 53.8516 42.8338 54.0063 43.4695 53.9471C44.2771 53.8719 45.0076 53.5268 45.661 52.912C46.33 52.2775 46.9138 51.5651 47.4122 50.7733C47.7456 50.2572 48.0351 49.7365 48.281 49.2112C48.5439 48.6841 48.7594 48.2049 48.9274 47.7733C48.9849 47.6467 49.0395 47.5809 49.091 47.5762C49.1941 47.5666 49.2592 47.7079 49.2863 48C49.2991 48.1374 49.2885 48.3031 49.2545 48.4968C49.2361 48.6719 49.191 48.8407 49.1195 49.0033C48.8721 49.5115 48.6161 50.0204 48.3514 50.5304C48.104 51.0388 47.8284 51.5236 47.5246 51.9849C47.0106 52.7951 46.3816 53.4858 45.6374 54.058C44.8933 54.6292 43.9371 54.9695 42.7686 55.0778Z" fill="white"/>
<path d="M75.1642 40.6341C75.776 40.5773 76.2261 40.0352 76.1696 39.4232C76.1125 38.8112 75.5706 38.3611 74.9584 38.4179C74.3466 38.4748 73.8965 39.0169 73.953 39.6289C74.0101 40.2409 74.552 40.6909 75.1642 40.6341Z" fill="white"/>
<path d="M15.7686 34.3414V15.105H23.8905C24.0776 15.105 24.327 15.1139 24.6386 15.1318C24.9592 15.1407 25.2442 15.1674 25.4936 15.2119C26.6424 15.39 27.5819 15.7685 28.3122 16.3474C29.0514 16.9262 29.5946 17.6565 29.9419 18.5382C30.2892 19.4109 30.463 20.3861 30.463 21.4637C30.463 22.5413 30.2849 23.5209 29.9286 24.4026C29.5813 25.2753 29.038 26.0011 28.2988 26.58C27.5686 27.1589 26.6335 27.5374 25.4936 27.7155C25.2442 27.7511 24.9592 27.7778 24.6386 27.7956C24.318 27.8135 24.0687 27.8224 23.8905 27.8224H19.402V34.3414H15.7686ZM19.402 24.4293H23.7303C23.9172 24.4293 24.1221 24.4204 24.3447 24.4026C24.5673 24.3848 24.7722 24.3491 24.9592 24.2957C25.449 24.1621 25.8275 23.9395 26.0947 23.6278C26.3619 23.3072 26.5444 22.9554 26.6424 22.5724C26.7492 22.1806 26.8027 21.811 26.8027 21.4637C26.8027 21.1164 26.7492 20.7512 26.6424 20.3683C26.5444 19.9764 26.3619 19.6247 26.0947 19.313C25.8275 18.9924 25.449 18.7653 24.9592 18.6316C24.7722 18.5783 24.5673 18.5426 24.3447 18.5248C24.1221 18.507 23.9172 18.4981 23.7303 18.4981H19.402V24.4293ZM30.4786 34.3414L36.3563 15.105H41.7799L47.6577 34.3414H43.9173L38.6807 17.376H39.3754L34.219 34.3414H30.4786ZM34.0052 30.3338V26.9407H44.1578V30.3338H34.0052ZM50.052 34.3414V15.105H53.3114L59.6703 27.8758L66.0287 15.105H69.2884V34.3414H65.8948V22.853L60.3114 34.3414H59.0293L53.4447 22.853V34.3414H50.052Z" fill="#FDCB0B"/>
<path d="M15.7685 34.3412H15.1006V35.0092H15.7685V34.3412ZM15.7685 15.1049V14.437H15.1006V15.1049H15.7685ZM24.6387 15.1317L24.6005 15.7985L24.6103 15.799L24.6201 15.7993L24.6387 15.1317ZM25.4935 15.2118L25.3761 15.8693L25.3837 15.8707L25.3913 15.8718L25.4935 15.2118ZM28.3123 16.3473L27.8973 16.8707L27.9004 16.8731L28.3123 16.3473ZM29.9419 18.5381L29.3205 18.7829L29.3213 18.7851L29.9419 18.5381ZM29.9286 24.4025L29.3093 24.1523L29.3081 24.1555L29.9286 24.4025ZM28.2989 26.5799L27.887 26.0541L27.8839 26.0565L28.2989 26.5799ZM25.4935 27.7154L25.5881 28.3766L25.5924 28.376L25.5966 28.3753L25.4935 27.7154ZM19.4021 27.8223V27.1543H18.7341V27.8223H19.4021ZM19.4021 34.3412V35.0092H20.07V34.3412H19.4021ZM19.4021 24.4292H18.7341V25.0971H19.4021V24.4292ZM24.9592 24.2956L24.7835 23.6512L24.7796 23.6523L24.7757 23.6534L24.9592 24.2956ZM26.0947 23.6277L26.6018 24.0624L26.6049 24.0588L26.6078 24.0553L26.0947 23.6277ZM26.6424 22.5723L25.998 22.3966L25.9966 22.4017L25.9953 22.4068L26.6424 22.5723ZM26.6424 20.3682L25.9944 20.5302L25.9966 20.539L25.9991 20.5477L26.6424 20.3682ZM26.0947 19.3129L25.5816 19.7405L25.5846 19.7441L25.5876 19.7475L26.0947 19.3129ZM24.9592 18.6316L24.7757 19.2738L24.7796 19.2749L24.7835 19.276L24.9592 18.6316ZM19.4021 18.498V17.8301H18.7341V18.498H19.4021ZM15.7685 34.3412H16.4365V15.1049H15.7685H15.1006V34.3412H15.7685ZM15.7685 15.1049V15.7729H23.8906V15.1049V14.437H15.7685V15.1049ZM23.8906 15.1049V15.7729C24.0593 15.7729 24.2943 15.781 24.6005 15.7985L24.6387 15.1317L24.6767 14.4648C24.3595 14.4467 24.0958 14.437 23.8906 14.437V15.1049ZM24.6387 15.1317L24.6201 15.7993C24.9158 15.8075 25.1667 15.8319 25.3761 15.8693L25.4935 15.2118L25.611 14.5543C25.3217 14.5026 25.0027 14.4735 24.6571 14.4639L24.6387 15.1317ZM25.4935 15.2118L25.3913 15.8718C26.4537 16.0366 27.2775 16.3794 27.8973 16.8707L28.3123 16.3473L28.7271 15.8238C27.8864 15.1574 26.831 14.7433 25.5959 14.5518L25.4935 15.2118ZM28.3123 16.3473L27.9004 16.8731C28.545 17.3779 29.0164 18.0108 29.3205 18.7829L29.9419 18.5381L30.5634 18.2933C30.1729 17.302 29.5578 16.4743 28.7241 15.8214L28.3123 16.3473ZM29.9419 18.5381L29.3213 18.7851C29.6332 19.5685 29.795 20.4583 29.795 21.4636H30.4629H31.1309C31.1309 20.3138 30.9454 19.2531 30.5626 18.2911L29.9419 18.5381ZM30.4629 21.4636H29.795C29.795 22.4668 29.6294 23.36 29.3093 24.1523L29.9286 24.4025L30.5479 24.6527C30.9402 23.6817 31.1309 22.6156 31.1309 21.4636H30.4629ZM29.9286 24.4025L29.3081 24.1555C29.0044 24.9185 28.5331 25.5481 27.887 26.0541L28.2989 26.5799L28.7107 27.1058C29.5429 26.454 30.1582 25.6319 30.5492 24.6494L29.9286 24.4025ZM28.2989 26.5799L27.8839 26.0565C27.2633 26.5485 26.4433 26.891 25.3905 27.0555L25.4935 27.7154L25.5966 28.3753C26.8237 28.1836 27.874 27.769 28.7138 27.1034L28.2989 26.5799ZM25.4935 27.7154L25.3991 27.0542C25.1731 27.0865 24.9079 27.1116 24.6016 27.1286L24.6387 27.7955L24.6757 28.4625C25.0106 28.4438 25.3153 28.4156 25.5881 28.3766L25.4935 27.7154ZM24.6387 27.7955L24.6016 27.1286C24.2852 27.1462 24.0502 27.1543 23.8906 27.1543V27.8223V28.4902C24.0871 28.4902 24.3508 28.4805 24.6757 28.4625L24.6387 27.7955ZM23.8906 27.8223V27.1543H19.4021V27.8223V28.4902H23.8906V27.8223ZM19.4021 27.8223H18.7341V34.3412H19.4021H20.07V27.8223H19.4021ZM19.4021 34.3412V33.6733H15.7685V34.3412V35.0092H19.4021V34.3412ZM19.4021 24.4292V25.0971H23.7302V24.4292V23.7613H19.4021V24.4292ZM23.7302 24.4292V25.0971C23.9381 25.0971 24.161 25.0872 24.398 25.0683L24.3447 24.4025L24.2915 23.7367C24.0833 23.7533 23.8965 23.7613 23.7302 23.7613V24.4292ZM24.3447 24.4025L24.398 25.0683C24.6583 25.0475 24.9075 25.0051 25.1427 24.9378L24.9592 24.2956L24.7757 23.6534C24.637 23.693 24.4764 23.7219 24.2915 23.7367L24.3447 24.4025ZM24.9592 24.2956L25.1349 24.94C25.723 24.7796 26.229 24.4973 26.6018 24.0624L26.0947 23.6277L25.5876 23.193C25.426 23.3815 25.1751 23.5444 24.7835 23.6512L24.9592 24.2956ZM26.0947 23.6277L26.6078 24.0553C26.9349 23.6627 27.1655 23.2224 27.2895 22.7379L26.6424 22.5723L25.9953 22.4068C25.9233 22.6882 25.7888 22.9514 25.5816 23.2001L26.0947 23.6277ZM26.6424 22.5723L27.2868 22.7481C27.4067 22.3084 27.4706 21.8794 27.4706 21.4636H26.8027H26.1348C26.1348 21.7426 26.0918 22.0526 25.998 22.3966L26.6424 22.5723ZM26.8027 21.4636H27.4706C27.4706 21.0476 27.4066 20.6218 27.2858 20.1886L26.6424 20.3682L25.9991 20.5477C26.0919 20.8805 26.1348 21.185 26.1348 21.4636H26.8027ZM26.6424 20.3682L27.2903 20.2062C27.1669 19.7121 26.9354 19.2673 26.6018 18.8782L26.0947 19.3129L25.5876 19.7475C25.7884 19.9819 25.922 20.2406 25.9944 20.5302L26.6424 20.3682ZM26.0947 19.3129L26.6078 18.8853C26.2356 18.4386 25.7277 18.1489 25.1349 17.9872L24.9592 18.6316L24.7835 19.276C25.1703 19.3814 25.4195 19.5459 25.5816 19.7405L26.0947 19.3129ZM24.9592 18.6316L25.1427 17.9893C24.9075 17.9221 24.6583 17.8797 24.398 17.8589L24.3447 18.5247L24.2915 19.1905C24.4764 19.2053 24.637 19.2342 24.7757 19.2738L24.9592 18.6316ZM24.3447 18.5247L24.398 17.8589C24.1609 17.8399 23.9381 17.8301 23.7302 17.8301V18.498V19.1659C23.8965 19.1659 24.0833 19.1739 24.2915 19.1905L24.3447 18.5247ZM23.7302 18.498V17.8301H19.4021V18.498V19.1659H23.7302V18.498ZM19.4021 18.498H18.7341V24.4292H19.4021H20.07V18.498H19.4021ZM30.4786 34.3412L29.8398 34.1461L29.5761 35.0092H30.4786V34.3412ZM36.3563 15.1049V14.437H35.862L35.7176 14.9098L36.3563 15.1049ZM41.7799 15.1049L42.4187 14.9098L42.2743 14.437H41.7799V15.1049ZM47.6576 34.3412V35.0092H48.5602L48.2965 34.1461L47.6576 34.3412ZM43.9173 34.3412L43.2791 34.5382L43.4244 35.0092H43.9173V34.3412ZM38.6807 17.3759V16.7079H37.7756L38.0425 17.5729L38.6807 17.3759ZM39.3754 17.3759L40.0144 17.5701L40.2765 16.7079H39.3754V17.3759ZM34.219 34.3412V35.0092H34.7141L34.858 34.5355L34.219 34.3412ZM34.0052 30.3337H33.3373V31.0016H34.0052V30.3337ZM34.0052 26.9406V26.2727H33.3373V26.9406H34.0052ZM44.1578 26.9406H44.8257V26.2727H44.1578V26.9406ZM44.1578 30.3337V31.0016H44.8257V30.3337H44.1578ZM30.4786 34.3412L31.1173 34.5364L36.9951 15.3001L36.3563 15.1049L35.7176 14.9098L29.8398 34.1461L30.4786 34.3412ZM36.3563 15.1049V15.7729H41.7799V15.1049V14.437H36.3563V15.1049ZM41.7799 15.1049L41.1411 15.3001L47.0189 34.5364L47.6576 34.3412L48.2965 34.1461L42.4187 14.9098L41.7799 15.1049ZM47.6576 34.3412V33.6733H43.9173V34.3412V35.0092H47.6576V34.3412ZM43.9173 34.3412L44.5555 34.1442L39.3189 17.1789L38.6807 17.3759L38.0425 17.5729L43.2791 34.5382L43.9173 34.3412ZM38.6807 17.3759V18.0438H39.3754V17.3759V16.7079H38.6807V17.3759ZM39.3754 17.3759L38.7363 17.1817L33.5799 34.147L34.219 34.3412L34.858 34.5355L40.0144 17.5701L39.3754 17.3759ZM34.219 34.3412V33.6733H30.4786V34.3412V35.0092H34.219V34.3412ZM34.0052 30.3337H34.6732V26.9406H34.0052H33.3373V30.3337H34.0052ZM34.0052 26.9406V27.6085H44.1578V26.9406V26.2727H34.0052V26.9406ZM44.1578 26.9406H43.4898V30.3337H44.1578H44.8257V26.9406H44.1578ZM44.1578 30.3337V29.6658H34.0052V30.3337V31.0016H44.1578V30.3337ZM50.052 34.3412H49.3841V35.0092H50.052V34.3412ZM50.052 15.1049V14.437H49.3841V15.1049H50.052ZM53.3117 15.1049L53.909 14.8073L53.725 14.437H53.3117V15.1049ZM59.6701 27.8757L59.0722 28.1734L59.6701 29.3742L60.2685 28.1734L59.6701 27.8757ZM66.029 15.1049V14.437H65.6151L65.4306 14.8073L66.029 15.1049ZM69.2882 15.1049H69.9559V14.437H69.2882V15.1049ZM69.2882 34.3412V35.0092H69.9559V34.3412H69.2882ZM65.8951 34.3412H65.2274V35.0092H65.8951V34.3412ZM65.8951 22.8529H66.5634L65.2946 22.5609L65.8951 22.8529ZM60.3111 34.3412V35.0092H60.7298L60.9122 34.6332L60.3111 34.3412ZM59.029 34.3412L58.4285 34.6332L58.6109 35.0092H59.029V34.3412ZM53.445 22.8529L54.0461 22.5609L52.7771 22.8529H53.445ZM53.445 34.3412V35.0092H54.1133V34.3412H53.445ZM50.052 34.3412H50.7199V15.1049H50.052H49.3841V34.3412H50.052ZM50.052 15.1049V15.7729H53.3117V15.1049V14.437H50.052V15.1049ZM53.3117 15.1049L52.7136 15.4026L59.0722 28.1734L59.6701 27.8757L60.2685 27.578L53.909 14.8073L53.3117 15.1049ZM59.6701 27.8757L60.2685 28.1734L66.6269 15.4026L66.029 15.1049L65.4306 14.8073L59.0722 27.578L59.6701 27.8757ZM66.029 15.1049V15.7729H69.2882V15.1049V14.437H66.029V15.1049ZM69.2882 15.1049H68.6205V34.3412H69.2882H69.9559V15.1049H69.2882ZM69.2882 34.3412V33.6733H65.8951V34.3412V35.0092H69.2882V34.3412ZM65.8951 34.3412H66.5634V22.8529H65.8951H65.2274V34.3412H65.8951ZM65.8951 22.8529L65.2946 22.5609L59.7106 34.0493L60.3111 34.3412L60.9122 34.6332L66.4962 23.1449L65.8951 22.8529ZM60.3111 34.3412V33.6733H59.029V34.3412V35.0092H60.3111V34.3412ZM59.029 34.3412L59.6295 34.0493L54.0461 22.5609L53.445 22.8529L52.8443 23.1449L58.4285 34.6332L59.029 34.3412ZM53.445 22.8529H52.7771V34.3412H53.445H54.1133V22.8529H53.445ZM53.445 34.3412V33.6733H50.052V34.3412V35.0092H53.445V34.3412Z" fill="#FDCB0B"/>
<path d="M72.7275 34.3411V15.1048H80.8497C81.0369 15.1048 81.2865 15.1137 81.5979 15.1315C81.9185 15.1405 82.2033 15.1672 82.4529 15.2117C83.6017 15.3898 84.5414 15.7682 85.2715 16.3471C86.0107 16.926 86.5537 17.6562 86.9014 18.5379C87.2486 19.4107 87.4219 20.3859 87.4219 21.4635C87.4219 22.541 87.2443 23.5207 86.8881 24.4024C86.5403 25.2751 85.9974 26.0009 85.2582 26.5798C84.5281 27.1587 83.5926 27.5371 82.4529 27.7152C82.2033 27.7509 81.9185 27.7776 81.5979 27.7954C81.2769 27.8133 81.0278 27.8222 80.8497 27.8222H76.3611V34.3411H72.7275ZM76.3611 24.429H80.6891C80.8763 24.429 81.0811 24.4202 81.3035 24.4024C81.5265 24.3846 81.7313 24.3489 81.9185 24.2955C82.4081 24.1619 82.7867 23.9393 83.0539 23.6275C83.3211 23.3069 83.5035 22.9552 83.6017 22.5722C83.7083 22.1804 83.7617 21.8108 83.7617 21.4635C83.7617 21.1161 83.7083 20.751 83.6017 20.368C83.5035 19.9762 83.3211 19.6245 83.0539 19.3128C82.7867 18.9921 82.4081 18.765 81.9185 18.6314C81.7313 18.5781 81.5265 18.5424 81.3035 18.5246C81.0811 18.5067 80.8763 18.4979 80.6891 18.4979H76.3611V24.429ZM87.4379 34.3411L93.3158 15.1048H98.7387L104.617 34.3411H100.877L95.6401 17.3758H96.335L91.1782 34.3411H87.4379ZM90.9643 30.3336V26.9405H101.117V30.3336H90.9643ZM113.756 34.7419C112.331 34.7419 111.045 34.4925 109.896 33.9938C108.756 33.4862 107.817 32.7648 107.077 31.8297C106.347 30.8857 105.884 29.7635 105.688 28.4633L109.482 27.9023C109.749 29.0066 110.301 29.8571 111.138 30.4538C111.976 31.0504 112.928 31.3488 113.997 31.3488C114.594 31.3488 115.172 31.2553 115.733 31.0683C116.294 30.8813 116.753 30.6052 117.109 30.24C117.474 29.8749 117.657 29.4251 117.657 28.8908C117.657 28.6949 117.626 28.5079 117.564 28.3298C117.51 28.1427 117.417 27.9691 117.283 27.8088C117.149 27.6485 116.958 27.4971 116.709 27.3546C116.468 27.2121 116.161 27.083 115.787 26.9672L110.791 25.4978C110.417 25.3909 109.981 25.2395 109.482 25.0435C108.992 24.8477 108.515 24.5671 108.052 24.2019C107.589 23.8369 107.202 23.3559 106.89 22.7593C106.587 22.1537 106.436 21.3922 106.436 20.475C106.436 19.1836 106.761 18.1105 107.411 17.2555C108.061 16.4006 108.93 15.7638 110.016 15.3453C111.102 14.9267 112.305 14.7218 113.623 14.7307C114.95 14.7486 116.134 14.9757 117.176 15.4121C118.218 15.8484 119.091 16.4852 119.795 17.3223C120.498 18.1506 121.005 19.1658 121.317 20.368L117.39 21.036C117.248 20.4126 116.985 19.8872 116.602 19.4597C116.219 19.0322 115.76 18.7071 115.226 18.4845C114.7 18.2619 114.148 18.1416 113.569 18.1238C113 18.1061 112.461 18.1862 111.953 18.3643C111.454 18.5335 111.045 18.7829 110.724 19.1124C110.412 19.4418 110.257 19.8337 110.257 20.2879C110.257 20.7065 110.386 21.0494 110.644 21.3166C110.902 21.5748 111.227 21.7841 111.619 21.9444C112.011 22.1047 112.411 22.2383 112.821 22.3451L116.161 23.2535C116.66 23.3871 117.212 23.5653 117.817 23.7879C118.423 24.0016 119.002 24.3044 119.554 24.6962C120.115 25.0792 120.573 25.5868 120.93 26.2191C121.295 26.8514 121.477 27.6529 121.477 28.6237C121.477 29.6567 121.259 30.5607 120.823 31.3354C120.396 32.1013 119.817 32.7381 119.086 33.2457C118.356 33.7444 117.528 34.1185 116.602 34.3678C115.684 34.6172 114.736 34.7419 113.756 34.7419Z" fill="white"/>
<path d="M72.7273 34.341H72.0596V35.009H72.7273V34.341ZM72.7273 15.1047V14.4368H72.0596V15.1047H72.7273ZM81.5977 15.1315L81.5593 15.7983L81.5694 15.7988L81.5796 15.7991L81.5977 15.1315ZM82.4526 15.2116L82.3353 15.8691L82.3428 15.8705L82.3502 15.8716L82.4526 15.2116ZM85.2713 16.3471L84.8564 16.8705L84.8596 16.8729L85.2713 16.3471ZM86.9012 18.5379L86.2793 18.7827L86.2804 18.7849L86.9012 18.5379ZM86.8878 24.4023L86.2681 24.1521L86.267 24.1553L86.8878 24.4023ZM85.258 26.5798L84.8462 26.0539L84.843 26.0563L85.258 26.5798ZM82.4526 27.7152L82.547 28.3764L82.5513 28.3758L82.5556 28.3751L82.4526 27.7152ZM76.3609 27.8221V27.1542H75.6932V27.8221H76.3609ZM76.3609 34.341V35.009H77.0286V34.341H76.3609ZM76.3609 24.429H75.6932V25.0969H76.3609V24.429ZM81.9182 24.2954L81.7422 23.651L81.7385 23.6521L81.7348 23.6532L81.9182 24.2954ZM83.0537 23.6275L83.5604 24.0622L83.5636 24.0586L83.5668 24.0551L83.0537 23.6275ZM83.6014 22.5721L82.9572 22.3964L82.9561 22.4015L82.9545 22.4066L83.6014 22.5721ZM83.6014 20.368L82.9534 20.53L82.9561 20.5388L82.9577 20.5475L83.6014 20.368ZM83.0537 19.3127L82.5406 19.7403L82.5438 19.7439L82.5465 19.7473L83.0537 19.3127ZM81.9182 18.6314L81.7348 19.2736L81.7385 19.2747L81.7422 19.2758L81.9182 18.6314ZM76.3609 18.4978V17.8299H75.6932V18.4978H76.3609ZM72.7273 34.341H73.3956V15.1047H72.7273H72.0596V34.341H72.7273ZM72.7273 15.1047V15.7727H80.8494V15.1047V14.4368H72.7273V15.1047ZM80.8494 15.1047V15.7727C81.018 15.7727 81.2532 15.7808 81.5593 15.7983L81.5977 15.1315L81.6356 14.4646C81.3182 14.4465 81.0548 14.4368 80.8494 14.4368V15.1047ZM81.5977 15.1315L81.5796 15.7991C81.875 15.8073 82.1257 15.8318 82.3353 15.8691L82.4526 15.2116L82.57 14.5541C82.2809 14.5024 81.9614 14.4734 81.6164 14.4638L81.5977 15.1315ZM82.4526 15.2116L82.3502 15.8716C83.4132 16.0364 84.2366 16.3792 84.8564 16.8705L85.2713 16.3471L85.6862 15.8236C84.8457 15.1572 83.7902 14.7431 82.555 14.5516L82.4526 15.2116ZM85.2713 16.3471L84.8596 16.8729C85.5038 17.3777 85.9753 18.0106 86.2793 18.7827L86.9012 18.5379L87.5225 18.2931C87.1316 17.3018 86.5166 16.4742 85.683 15.8212L85.2713 16.3471ZM86.9012 18.5379L86.2804 18.7849C86.5918 19.5683 86.754 20.4581 86.754 21.4634H87.4217H88.09C88.09 20.3136 87.9044 19.2529 87.522 18.2909L86.9012 18.5379ZM87.4217 21.4634H86.754C86.754 22.4666 86.5886 23.3598 86.2681 24.1521L86.8878 24.4023L87.507 24.6525C87.8996 23.6815 88.09 22.6154 88.09 21.4634H87.4217ZM86.8878 24.4023L86.267 24.1553C85.963 24.9183 85.4921 25.5479 84.8462 26.0539L85.258 26.5798L85.6697 27.1056C86.5017 26.4538 87.1172 25.6318 87.5086 24.6492L86.8878 24.4023ZM85.258 26.5798L84.843 26.0563C84.2222 26.5483 83.4025 26.8908 82.3497 27.0553L82.4526 27.7152L82.5556 28.3751C83.7828 28.1834 84.8334 27.7688 85.6729 27.1032L85.258 26.5798ZM82.4526 27.7152L82.3582 27.054C82.1321 27.0863 81.867 27.1114 81.5609 27.1284L81.5977 27.7953L81.6345 28.4623C81.97 28.4436 82.2745 28.4154 82.547 28.3764L82.4526 27.7152ZM81.5977 27.7953L81.5609 27.1284C81.2441 27.146 81.0094 27.1542 80.8494 27.1542V27.8221V28.49C81.0462 28.49 81.3097 28.4803 81.6345 28.4623L81.5977 27.7953ZM80.8494 27.8221V27.1542H76.3609V27.8221V28.49H80.8494V27.8221ZM76.3609 27.8221H75.6932V34.341H76.3609H77.0286V27.8221H76.3609ZM76.3609 34.341V33.6731H72.7273V34.341V35.009H76.3609V34.341ZM76.3609 24.429V25.0969H80.6889V24.429V23.7611H76.3609V24.429ZM80.6889 24.429V25.0969C80.8974 25.0969 81.1204 25.087 81.3566 25.0681L81.3038 24.4023L81.2505 23.7365C81.042 23.7531 80.8558 23.7611 80.6889 23.7611V24.429ZM81.3038 24.4023L81.3566 25.0681C81.6174 25.0473 81.8665 25.0049 82.1017 24.9376L81.9182 24.2954L81.7348 23.6532C81.5961 23.6928 81.435 23.7217 81.2505 23.7365L81.3038 24.4023ZM81.9182 24.2954L82.0937 24.9398C82.682 24.7794 83.1881 24.4971 83.5604 24.0622L83.0537 23.6275L82.5465 23.1928C82.3849 23.3813 82.1342 23.5442 81.7422 23.651L81.9182 24.2954ZM83.0537 23.6275L83.5668 24.0551C83.8937 23.6625 84.1246 23.2222 84.2484 22.7377L83.6014 22.5721L82.9545 22.4066C82.8825 22.688 82.7476 22.9512 82.5406 23.1999L83.0537 23.6275ZM83.6014 22.5721L84.2457 22.7479C84.3657 22.3082 84.4297 21.8792 84.4297 21.4634H83.7614H83.0937C83.0937 21.7424 83.0505 22.0524 82.9572 22.3964L83.6014 22.5721ZM83.7614 21.4634H84.4297C84.4297 21.0473 84.3657 20.6216 84.2446 20.1884L83.6014 20.368L82.9577 20.5475C83.051 20.8803 83.0937 21.1848 83.0937 21.4634H83.7614ZM83.6014 20.368L84.2494 20.206C84.1257 19.7119 83.8942 19.2671 83.5604 18.878L83.0537 19.3127L82.5465 19.7473C82.747 19.9817 82.8809 20.2404 82.9534 20.53L83.6014 20.368ZM83.0537 19.3127L83.5668 18.8851C83.1945 18.4384 82.6868 18.1487 82.0937 17.987L81.9182 18.6314L81.7422 19.2758C82.1294 19.3812 82.3785 19.5457 82.5406 19.7403L83.0537 19.3127ZM81.9182 18.6314L82.1017 17.9891C81.8665 17.9219 81.6174 17.8795 81.3566 17.8587L81.3038 18.5245L81.2505 19.1903C81.435 19.2051 81.5961 19.234 81.7348 19.2736L81.9182 18.6314ZM81.3038 18.5245L81.3566 17.8587C81.1204 17.8398 80.8974 17.8299 80.6889 17.8299V18.4978V19.1657C80.8558 19.1657 81.042 19.1737 81.2505 19.1903L81.3038 18.5245ZM80.6889 18.4978V17.8299H76.3609V18.4978V19.1657H80.6889V18.4978ZM76.3609 18.4978H75.6932V24.429H76.3609H77.0286V18.4978H76.3609ZM87.4377 34.341L86.7993 34.1459L86.5353 35.009H87.4377V34.341ZM93.3156 15.1047V14.4368H92.8212L92.6766 14.9096L93.3156 15.1047ZM98.739 15.1047L99.378 14.9096L99.2334 14.4368H98.739V15.1047ZM104.617 34.341V35.009H105.519L105.255 34.1459L104.617 34.341ZM100.877 34.341L100.238 34.5381L100.383 35.009H100.877V34.341ZM95.6398 17.3757V16.7078H94.7348L95.0014 17.5727L95.6398 17.3757ZM96.3348 17.3757L96.9732 17.5699L97.2356 16.7078H96.3348V17.3757ZM91.178 34.341V35.009H91.6729L91.8169 34.5353L91.178 34.341ZM90.9641 30.3335H90.2964V31.0014H90.9641V30.3335ZM90.9641 26.9404V26.2725H90.2964V26.9404H90.9641ZM101.117 26.9404H101.784V26.2725H101.117V26.9404ZM101.117 30.3335V31.0014H101.784V30.3335H101.117ZM87.4377 34.341L88.0761 34.5362L93.954 15.2999L93.3156 15.1047L92.6766 14.9096L86.7993 34.1459L87.4377 34.341ZM93.3156 15.1047V15.7727H98.739V15.1047V14.4368H93.3156V15.1047ZM98.739 15.1047L98.1001 15.2999L103.978 34.5362L104.617 34.341L105.255 34.1459L99.378 14.9096L98.739 15.1047ZM104.617 34.341V33.6731H100.877V34.341V35.009H104.617V34.341ZM100.877 34.341L101.515 34.144L96.2777 17.1787L95.6398 17.3757L95.0014 17.5727L100.238 34.5381L100.877 34.341ZM95.6398 17.3757V18.0436H96.3348V17.3757V16.7078H95.6398V17.3757ZM96.3348 17.3757L95.6958 17.1815L90.539 34.1468L91.178 34.341L91.8169 34.5353L96.9732 17.5699L96.3348 17.3757ZM91.178 34.341V33.6731H87.4377V34.341V35.009H91.178V34.341ZM90.9641 30.3335H91.6318V26.9404H90.9641H90.2964V30.3335H90.9641ZM90.9641 26.9404V27.6083H101.117V26.9404V26.2725H90.9641V26.9404ZM101.117 26.9404H100.449V30.3335H101.117H101.784V26.9404H101.117ZM101.117 30.3335V29.6656H90.9641V30.3335V31.0014H101.117V30.3335ZM109.895 33.9937L109.624 34.6039L109.63 34.6064L109.895 33.9937ZM107.077 31.8296L106.549 32.2384L106.553 32.2439L107.077 31.8296ZM105.688 28.4633L105.59 27.8026L104.927 27.9005L105.027 28.5628L105.688 28.4633ZM109.481 27.9023L110.131 27.7451L109.987 27.1522L109.384 27.2415L109.481 27.9023ZM117.109 30.24L116.637 29.7677L116.635 29.7706L116.631 29.7735L117.109 30.24ZM117.564 28.3297L116.921 28.5132L116.926 28.532L116.933 28.5504L117.564 28.3297ZM116.709 27.3545L116.368 27.9291L116.373 27.9318L116.377 27.9344L116.709 27.3545ZM115.787 26.9671L115.984 26.3291L115.98 26.3277L115.975 26.3264L115.787 26.9671ZM110.791 25.4977L110.98 24.8569L110.974 24.8554L110.791 25.4977ZM109.481 25.0435L109.233 25.6636L109.237 25.6652L109.481 25.0435ZM106.89 22.7592L106.293 23.0579L106.295 23.0632L106.298 23.0684L106.89 22.7592ZM113.623 14.7307L113.632 14.0628H113.628L113.623 14.7307ZM119.795 17.3223L119.283 17.752L119.286 17.7547L119.795 17.3223ZM121.317 20.368L121.429 21.0265L122.147 20.9045L121.964 20.2004L121.317 20.368ZM117.39 21.0359L116.739 21.1848L116.879 21.8003L117.502 21.6944L117.39 21.0359ZM115.226 18.4844L114.965 19.0994L114.969 19.101L115.226 18.4844ZM111.953 18.3642L112.167 18.9968L112.174 18.9945L111.953 18.3642ZM110.724 19.1123L110.245 18.6465L110.242 18.6499L110.239 18.6533L110.724 19.1123ZM110.644 21.3164L110.164 21.7807L110.168 21.7847L110.172 21.7887L110.644 21.3164ZM112.821 22.345L112.997 21.7006L112.99 21.6988L112.821 22.345ZM116.161 23.2535L115.985 23.898L115.988 23.8986L116.161 23.2535ZM117.817 23.7878L117.587 24.4147L117.591 24.4162L117.595 24.4177L117.817 23.7878ZM119.554 24.6961L119.167 25.2409L119.172 25.2444L119.177 25.2479L119.554 24.6961ZM120.93 26.2191L120.348 26.5469L120.351 26.553L120.93 26.2191ZM120.823 31.3354L120.241 31.0076L120.24 31.0098L120.823 31.3354ZM119.086 33.2456L119.463 33.7972L119.468 33.7941L119.086 33.2456ZM116.601 34.3678L116.428 33.7228L116.426 33.7232L116.601 34.3678ZM113.756 34.7418V34.0739C112.411 34.0739 111.216 33.8386 110.161 33.381L109.895 33.9937L109.63 34.6064C110.873 35.1462 112.253 35.4097 113.756 35.4097V34.7418ZM109.895 33.9937L110.168 33.3835C109.121 32.9178 108.27 32.2618 107.601 31.4154L107.077 31.8296L106.553 32.2439C107.362 33.2677 108.39 34.0545 109.624 34.6039L109.895 33.9937ZM107.077 31.8296L107.605 31.421C106.952 30.576 106.529 29.5631 106.349 28.3638L105.688 28.4633L105.027 28.5628C105.238 29.9639 105.742 31.1953 106.549 32.2384L107.077 31.8296ZM105.688 28.4633L105.785 29.124L109.579 28.563L109.481 27.9023L109.384 27.2415L105.59 27.8026L105.688 28.4633ZM109.481 27.9023L108.832 28.0593C109.133 29.3022 109.768 30.2976 110.75 30.9976L111.139 30.4537L111.526 29.9098C110.833 29.4164 110.365 28.7109 110.131 27.7451L109.481 27.9023ZM111.139 30.4537L110.75 30.9976C111.705 31.6783 112.795 32.0167 113.997 32.0167V31.3487V30.6808C113.061 30.6808 112.245 30.4225 111.526 29.9098L111.139 30.4537ZM113.997 31.3487V32.0167C114.665 32.0167 115.315 31.9118 115.944 31.7019L115.733 31.0682L115.522 30.4346C115.03 30.5987 114.523 30.6808 113.997 30.6808V31.3487ZM115.733 31.0682L115.944 31.7019C116.591 31.4865 117.146 31.1591 117.588 30.7064L117.109 30.24L116.631 29.7735C116.36 30.0512 115.998 30.2759 115.522 30.4346L115.733 31.0682ZM117.109 30.24L117.581 30.7123C118.077 30.2171 118.325 29.5953 118.325 28.8907H117.657H116.989C116.989 29.2548 116.872 29.5326 116.637 29.7677L117.109 30.24ZM117.657 28.8907H118.325C118.325 28.6226 118.282 28.3608 118.194 28.109L117.564 28.3297L116.933 28.5504C116.969 28.6548 116.989 28.7671 116.989 28.8907H117.657ZM117.564 28.3297L118.206 28.1462C118.125 27.8633 117.985 27.6076 117.796 27.3811L117.283 27.8087L116.769 28.2363C116.848 28.3304 116.895 28.422 116.921 28.5132L117.564 28.3297ZM117.283 27.8087L117.796 27.3811C117.596 27.1414 117.334 26.9428 117.04 26.7746L116.709 27.3545L116.377 27.9344C116.582 28.0512 116.702 28.1555 116.769 28.2363L117.283 27.8087ZM116.709 27.3545L117.049 26.7799C116.75 26.6025 116.39 26.4546 115.984 26.3291L115.787 26.9671L115.589 27.6052C115.932 27.7111 116.187 27.8216 116.368 27.9291L116.709 27.3545ZM115.787 26.9671L115.975 26.3264L110.98 24.8569L110.791 25.4977L110.602 26.1385L115.599 27.6079L115.787 26.9671ZM110.791 25.4977L110.974 24.8554C110.627 24.7562 110.212 24.6126 109.726 24.4218L109.481 25.0435L109.237 25.6652C109.749 25.8663 110.207 26.0255 110.607 26.1399L110.791 25.4977ZM109.481 25.0435L109.729 24.4233C109.305 24.2538 108.884 24.0075 108.465 23.6774L108.052 24.2019L107.638 24.7264C108.147 25.1266 108.678 25.4413 109.233 25.6636L109.481 25.0435ZM108.052 24.2019L108.465 23.6774C108.086 23.3784 107.756 22.9748 107.482 22.4499L106.89 22.7592L106.298 23.0684C106.647 23.7369 107.092 24.2952 107.638 24.7264L108.052 24.2019ZM106.89 22.7592L107.487 22.4604C107.244 21.9745 107.104 21.3234 107.104 20.4749H106.436H105.768C105.768 21.4609 105.93 22.3327 106.293 23.0579L106.89 22.7592ZM106.436 20.4749H107.104C107.104 19.2992 107.398 18.3763 107.943 17.6598L107.411 17.2555L106.879 16.8512C106.124 17.8444 105.768 19.0679 105.768 20.4749H106.436ZM107.411 17.2555L107.943 17.6598C108.512 16.9117 109.275 16.3464 110.256 15.9685L110.016 15.3452L109.776 14.7219C108.584 15.1811 107.611 15.8894 106.879 16.8512L107.411 17.2555ZM110.016 15.3452L110.256 15.9685C111.255 15.5836 112.373 15.3902 113.619 15.3986L113.623 14.7307L113.628 14.0628C112.237 14.0534 110.95 14.2696 109.776 14.7219L110.016 15.3452ZM113.623 14.7307L113.614 15.3986C114.87 15.4154 115.967 15.63 116.918 16.0281L117.176 15.412L117.435 14.7959C116.301 14.3212 115.03 14.0816 113.632 14.0628L113.623 14.7307ZM117.176 15.412L116.918 16.0281C117.865 16.4248 118.65 16.999 119.283 17.752L119.795 17.3223L120.306 16.8925C119.532 15.9712 118.571 15.2719 117.435 14.7959L117.176 15.412ZM119.795 17.3223L119.286 17.7547C119.915 18.4959 120.381 19.4169 120.671 20.5356L121.317 20.368L121.964 20.2004C121.631 18.9146 121.081 17.8051 120.303 16.8898L119.795 17.3223ZM121.317 20.368L121.205 19.7095L117.278 20.3775L117.39 21.0359L117.502 21.6944L121.429 21.0265L121.317 20.368ZM117.39 21.0359L118.041 20.8871C117.876 20.1662 117.566 19.5351 117.099 19.0139L116.601 19.4596L116.104 19.9053C116.403 20.2392 116.619 20.6589 116.739 21.1848L117.39 21.0359ZM116.601 19.4596L117.099 19.0139C116.649 18.5116 116.108 18.1285 115.483 17.8679L115.226 18.4844L114.969 19.101C115.412 19.2857 115.788 19.5527 116.104 19.9053L116.601 19.4596ZM115.226 18.4844L115.486 17.8695C114.884 17.614 114.25 17.4764 113.59 17.4562L113.569 18.1238L113.549 18.7914C114.046 18.8067 114.517 18.9095 114.965 19.0994L115.226 18.4844ZM113.569 18.1238L113.59 17.4562C112.943 17.4359 112.321 17.527 111.732 17.7339L111.953 18.3642L112.174 18.9945C112.599 18.8452 113.055 18.776 113.549 18.7914L113.569 18.1238ZM111.953 18.3642L111.739 17.7317C111.154 17.9299 110.649 18.231 110.245 18.6465L110.724 19.1123L111.203 19.578C111.44 19.3346 111.755 19.137 112.167 18.9968L111.953 18.3642ZM110.724 19.1123L110.239 18.6533C109.809 19.107 109.589 19.6632 109.589 20.2878H110.256H110.924C110.924 20.0041 111.015 19.7766 111.209 19.5713L110.724 19.1123ZM110.256 20.2878H109.589C109.589 20.8559 109.769 21.3728 110.164 21.7807L110.644 21.3164L111.124 20.8522C111.001 20.7257 110.924 20.5569 110.924 20.2878H110.256ZM110.644 21.3164L110.172 21.7887C110.502 22.1189 110.905 22.3739 111.366 22.5625L111.619 21.9443L111.872 21.3261C111.549 21.1941 111.302 21.0305 111.116 20.8441L110.644 21.3164ZM111.619 21.9443L111.366 22.5625C111.785 22.734 112.214 22.877 112.653 22.9914L112.821 22.345L112.99 21.6988C112.608 21.5994 112.236 21.4752 111.872 21.3261L111.619 21.9443ZM112.821 22.345L112.646 22.9896L115.985 23.898L116.161 23.2535L116.336 22.6089L112.997 21.7006L112.821 22.345ZM116.161 23.2535L115.988 23.8986C116.463 24.0259 116.996 24.1974 117.587 24.4147L117.817 23.7878L118.048 23.1609C117.428 22.9329 116.856 22.7482 116.334 22.6083L116.161 23.2535ZM117.817 23.7878L117.595 24.4177C118.139 24.6096 118.663 24.883 119.167 25.2409L119.554 24.6961L119.941 24.1515C119.34 23.7257 118.707 23.3934 118.04 23.1579L117.817 23.7878ZM119.554 24.6961L119.177 25.2479C119.648 25.569 120.038 25.9977 120.348 26.5469L120.93 26.2191L121.512 25.8912C121.109 25.1758 120.582 24.5892 119.93 24.1445L119.554 24.6961ZM120.93 26.2191L120.351 26.553C120.641 27.0557 120.809 27.7328 120.809 28.6236H121.477H122.145C122.145 27.573 121.949 26.647 121.508 25.885L120.93 26.2191ZM121.477 28.6236H120.809C120.809 29.5606 120.612 30.348 120.241 31.0076L120.823 31.3354L121.405 31.6631C121.907 30.7732 122.145 29.7527 122.145 28.6236H121.477ZM120.823 31.3354L120.24 31.0098C119.863 31.6858 119.353 32.2467 118.705 32.6972L119.086 33.2456L119.468 33.7941C120.28 33.2293 120.928 32.5168 121.406 31.6609L120.823 31.3354ZM119.086 33.2456L118.709 32.694C118.046 33.147 117.288 33.4913 116.428 33.7228L116.601 34.3678L116.775 35.0127C117.768 34.7455 118.666 34.3417 119.463 33.7972L119.086 33.2456ZM116.601 34.3678L116.426 33.7232C115.568 33.9566 114.679 34.0739 113.756 34.0739V34.7418V35.4097C114.793 35.4097 115.801 35.2776 116.777 35.0123L116.601 34.3678Z" fill="white"/>
</svg>
